<?xml version="1.0" standalone="no"?>
<!DOCTYPE svg PUBLIC "-//W3C//DTD SVG 20010904//EN"
 "http://www.w3.org/TR/2001/REC-SVG-20010904/DTD/svg10.dtd">
<svg version="1.0" xmlns="http://www.w3.org/2000/svg"
 width="600.000000pt" height="600.000000pt" viewBox="0 0 600.000000 600.000000"
 preserveAspectRatio="xMidYMid meet">
<metadata>
Created by potrace 1.11, written by Peter Selinger 2001-2013
</metadata>
<g transform="translate(0.000000,600.000000) scale(0.100000,-0.100000)"
fill="#000000" stroke="none">
<path d="M2920 4551 c-25 -5 -36 -9 -25 -11 11 -1 -9 -6 -45 -11 -112 -14
-208 -39 -214 -55 -3 -8 0 -27 8 -42 34 -68 34 -68 -56 -96 -147 -44 -135 -45
-143 14 -8 60 -20 68 -78 49 -23 -8 -49 -14 -57 -14 -24 -1 -80 -27 -75 -34 6
-10 -53 -43 -64 -37 -5 3 -20 -5 -35 -19 -15 -13 -29 -25 -31 -25 -3 0 -5 -2
-5 -5 0 -3 -33 -33 -74 -66 -81 -64 -186 -176 -186 -196 0 -7 22 -27 49 -45
l49 -33 -46 -60 c-25 -33 -56 -72 -70 -87 l-25 -27 -40 35 c-23 19 -46 33 -51
31 -6 -2 -26 -23 -43 -46 -18 -23 -33 -39 -33 -35 0 4 -16 -9 -35 -30 -31 -34
-75 -127 -75 -160 0 -7 -9 -39 -21 -72 -14 -41 -18 -73 -15 -104 3 -25 2 -37
-2 -28 -4 9 -8 -32 -10 -93 l-3 -109 58 0 59 0 3 -71 c1 -40 -1 -105 -4 -145
l-7 -74 -48 0 c-29 0 -50 -5 -53 -12 -2 -7 0 -42 4 -77 5 -36 7 -72 4 -82 -9
-27 16 -114 27 -97 7 9 8 6 5 -10 -3 -13 -3 -21 1 -18 8 9 43 -86 37 -102 -3
-8 0 -10 7 -6 8 5 9 2 5 -10 -4 -9 -3 -15 2 -12 4 3 19 -18 32 -47 39 -84 117
-197 136 -197 9 0 27 9 39 21 l21 20 50 -68 c77 -104 77 -106 43 -132 -17 -12
-30 -28 -30 -36 0 -8 27 -43 60 -78 33 -35 57 -66 54 -69 -5 -6 45 -41 63 -44
16 -3 69 -44 57 -44 -5 -1 2 -9 15 -20 12 -11 27 -18 31 -15 5 3 35 -11 68
-30 74 -43 208 -97 230 -93 9 2 21 17 26 34 l9 31 104 -34 103 -35 -15 -28
c-8 -16 -15 -34 -15 -40 0 -18 61 -38 154 -52 56 -8 81 -15 69 -19 -10 -4 27
-6 82 -4 79 3 89 2 50 -5 -38 -6 -22 -8 66 -5 111 3 203 20 194 35 -3 4 12 11
32 15 74 14 84 30 58 96 -5 14 6 21 57 38 35 11 82 24 105 29 41 9 42 9 48
-20 9 -39 29 -45 84 -24 25 10 61 20 79 21 18 2 43 10 55 18 12 7 34 17 49 21
30 7 101 74 92 87 -3 5 -2 9 3 10 26 2 44 9 79 32 40 25 94 87 98 111 1 8 16
30 34 51 18 20 31 42 29 48 -2 7 -20 23 -39 36 l-37 23 55 73 c60 79 82 88
124 50 25 -23 39 -12 90 68 20 31 40 54 45 50 4 -5 5 -3 1 4 -8 14 14 64 25
57 22 -13 104 209 118 324 4 30 3 52 -2 52 -5 0 -7 18 -4 41 8 63 3 69 -64 69
l-59 0 0 140 0 140 50 0 c36 0 52 4 56 15 4 8 1 52 -6 98 -7 45 -14 107 -15
137 -4 89 -107 332 -134 316 -4 -3 -24 22 -45 55 -21 32 -43 59 -49 59 -6 0
-25 -14 -43 -31 l-32 -31 -52 68 c-41 55 -48 70 -37 79 7 5 22 23 33 39 14 22
15 31 6 34 -9 3 -10 8 -2 17 12 15 -40 86 -111 150 -24 22 -43 43 -42 46 2 7
-72 72 -138 121 -36 27 -139 71 -147 64 -2 -3 -34 7 -70 20 -63 24 -67 24 -79
8 -7 -10 -13 -27 -13 -38 0 -14 -3 -17 -8 -8 -6 9 -14 7 -31 -9 l-22 -21 -69
21 c-75 23 -77 26 -71 102 2 33 -11 43 -78 59 -29 7 -48 16 -42 19 37 23 -211
48 -309 32z"/>
</g>
</svg>
